<svg version="1.1" viewBox="0 0 40 40" xmlns="http://www.w3.org/2000/svg"><path d="m15.35 28q1.55 0 2.6-1.075t1.05-2.575-1.05-2.575-2.55-1.075q-1.55 0-2.625 1.075t-1.075 2.575 1.075 2.575 2.575 1.075zm9.3 0q1.5 0 2.575-1.075t1.075-2.575-1.075-2.575-2.575-1.075-2.575 1.075-1.075 2.575 1.075 2.575 2.575 1.075zm-4.65-9.35q1.5 0 2.575-1.05t1.075-2.6q0-1.5-1.075-2.575t-2.575-1.075-2.575 1.075-1.075 2.575q0 1.55 1.075 2.6t2.575 1.05zm0 21.35q-4.1 0-7.75-1.575t-6.375-4.3-4.3-6.375-1.575-7.8q0-4.1 1.575-7.75t4.3-6.35 6.375-4.275 7.8-1.575q4.1 0 7.75 1.575t6.35 4.275 4.275 6.35 1.575 7.8q0 4.1-1.575 7.75t-4.275 6.375-6.35 4.3-7.8 1.575zm0.05-3q7.05 0 12-4.975t4.95-12.075q0-7.05-4.95-12t-12.05-4.95q-7.05 0-12.025 4.95t-4.975 12.05q0 7.05 4.975 12.025t12.075 4.975z"/></svg>
